<svg width="61" height="30" viewBox="0 0 61 30" fill="none" xmlns="http://www.w3.org/2000/svg">
<path d="M45.448 19V17.656H42.244C42.284 17.496 42.376 17.308 42.52 17.092C42.664 16.868 42.864 16.64 43.12 16.408L44.08 15.52C44.32 15.304 44.524 15.096 44.692 14.896C44.86 14.688 44.996 14.476 45.1 14.26C45.204 14.044 45.28 13.82 45.328 13.588C45.376 13.348 45.4 13.092 45.4 12.82C45.4 12.076 45.192 11.504 44.776 11.104C44.36 10.704 43.72 10.504 42.856 10.504C41.944 10.504 41.276 10.716 40.852 11.14C40.428 11.564 40.216 12.172 40.216 12.964V13.288H41.872C41.872 13.064 41.88 12.852 41.896 12.652C41.92 12.452 41.964 12.276 42.028 12.124C42.1 11.972 42.196 11.852 42.316 11.764C42.444 11.676 42.616 11.632 42.832 11.632C43.392 11.632 43.672 11.984 43.672 12.688C43.672 12.904 43.66 13.096 43.636 13.264C43.62 13.432 43.58 13.588 43.516 13.732C43.452 13.876 43.36 14.02 43.24 14.164C43.128 14.308 42.976 14.464 42.784 14.632L42.088 15.28C41.776 15.568 41.5 15.856 41.26 16.144C41.028 16.424 40.832 16.712 40.672 17.008C40.52 17.304 40.404 17.616 40.324 17.944C40.252 18.272 40.216 18.624 40.216 19H45.448ZM51.2616 10.672H46.0296V12.16H49.6056C49.1896 12.728 48.8296 13.308 48.5256 13.9C48.2216 14.492 47.9616 15.08 47.7456 15.664C47.5376 16.248 47.3696 16.824 47.2416 17.392C47.1136 17.952 47.0176 18.488 46.9536 19H48.7656C48.8376 18.4 48.9416 17.792 49.0776 17.176C49.2136 16.552 49.3856 15.94 49.5936 15.34C49.8016 14.74 50.0416 14.156 50.3136 13.588C50.5936 13.02 50.9096 12.488 51.2616 11.992V10.672ZM56.6313 12.016V10.672H52.2033L51.8913 15.292H53.4393C53.4713 15.052 53.5513 14.864 53.6793 14.728C53.8153 14.584 54.0073 14.512 54.2553 14.512C54.4473 14.512 54.6073 14.54 54.7353 14.596C54.8633 14.652 54.9633 14.748 55.0353 14.884C55.1153 15.02 55.1713 15.204 55.2033 15.436C55.2353 15.668 55.2513 15.96 55.2513 16.312C55.2513 16.864 55.1713 17.28 55.0113 17.56C54.8593 17.832 54.6033 17.968 54.2433 17.968C54.0593 17.968 53.9113 17.924 53.7993 17.836C53.6873 17.74 53.5993 17.624 53.5353 17.488C53.4793 17.344 53.4433 17.192 53.4273 17.032C53.4113 16.872 53.4033 16.72 53.4033 16.576H51.7473V16.804C51.7473 17.044 51.7753 17.304 51.8313 17.584C51.8953 17.856 52.0153 18.112 52.1913 18.352C52.3673 18.584 52.6193 18.772 52.9473 18.916C53.2833 19.06 53.7193 19.132 54.2553 19.132C54.7993 19.132 55.2473 19.064 55.5993 18.928C55.9513 18.784 56.2273 18.576 56.4273 18.304C56.6353 18.024 56.7793 17.692 56.8593 17.308C56.9393 16.924 56.9793 16.496 56.9793 16.024C56.9793 15.688 56.9473 15.36 56.8833 15.04C56.8193 14.712 56.7073 14.42 56.5473 14.164C56.3953 13.908 56.1833 13.704 55.9113 13.552C55.6473 13.392 55.3113 13.312 54.9033 13.312C54.5353 13.312 54.2233 13.364 53.9673 13.468C53.7113 13.564 53.5033 13.724 53.3433 13.948H53.3193L53.4993 12.016H56.6313Z" fill="white"/>
<mask id="mask0_2_71" style="mask-type:alpha" maskUnits="userSpaceOnUse" x="4" y="7" width="22" height="16">
<path fill-rule="evenodd" clip-rule="evenodd" d="M15 7.5C10 7.5 5.73 10.61 4 15C5.73 19.39 10 22.5 15 22.5C20 22.5 24.27 19.39 26 15C24.27 10.61 20 7.5 15 7.5ZM15 20C12.24 20 10 17.76 10 15C10 12.24 12.24 10 15 10C17.76 10 20 12.24 20 15C20 17.76 17.76 20 15 20ZM15 12C13.34 12 12 13.34 12 15C12 16.66 13.34 18 15 18C16.66 18 18 16.66 18 15C18 13.34 16.66 12 15 12Z" fill="white"/>
</mask>
<g mask="url(#mask0_2_71)">
<rect x="2" y="2" width="26" height="26" fill="white"/>
</g>
</svg>
