<svg width="54" height="30" viewBox="0 0 54 30" fill="none" xmlns="http://www.w3.org/2000/svg">
<path d="M42.184 19H43.912V10.504H42.64C42.552 10.984 42.34 11.332 42.004 11.548C41.676 11.764 41.224 11.872 40.648 11.872H40.492V13H42.184V19ZM51.2136 19V17.656H48.0096C48.0496 17.496 48.1416 17.308 48.2856 17.092C48.4296 16.868 48.6296 16.64 48.8856 16.408L49.8456 15.52C50.0856 15.304 50.2896 15.096 50.4576 14.896C50.6256 14.688 50.7616 14.476 50.8656 14.26C50.9696 14.044 51.0456 13.82 51.0936 13.588C51.1416 13.348 51.1656 13.092 51.1656 12.82C51.1656 12.076 50.9576 11.504 50.5416 11.104C50.1256 10.704 49.4856 10.504 48.6216 10.504C47.7096 10.504 47.0416 10.716 46.6176 11.14C46.1936 11.564 45.9816 12.172 45.9816 12.964V13.288H47.6376C47.6376 13.064 47.6456 12.852 47.6616 12.652C47.6856 12.452 47.7296 12.276 47.7936 12.124C47.8656 11.972 47.9616 11.852 48.0816 11.764C48.2096 11.676 48.3816 11.632 48.5976 11.632C49.1576 11.632 49.4376 11.984 49.4376 12.688C49.4376 12.904 49.4256 13.096 49.4016 13.264C49.3856 13.432 49.3456 13.588 49.2816 13.732C49.2176 13.876 49.1256 14.02 49.0056 14.164C48.8936 14.308 48.7416 14.464 48.5496 14.632L47.8536 15.28C47.5416 15.568 47.2656 15.856 47.0256 16.144C46.7936 16.424 46.5976 16.712 46.4376 17.008C46.2856 17.304 46.1696 17.616 46.0896 17.944C46.0176 18.272 45.9816 18.624 45.9816 19H51.2136Z" fill="white"/>
<mask id="mask0_2_80" style="mask-type:alpha" maskUnits="userSpaceOnUse" x="5" y="5" width="20" height="20">
<path fill-rule="evenodd" clip-rule="evenodd" d="M24 9H22V18H9V20C9 20.55 9.45 21 10 21H21L25 25V10C25 9.45 24.55 9 24 9ZM20 15V6C20 5.45 19.55 5 19 5H6C5.45 5 5 5.45 5 6V20L9 16H19C19.55 16 20 15.55 20 15Z" fill="white"/>
</mask>
<g mask="url(#mask0_2_80)">
<rect x="2" y="2" width="26" height="26" fill="white"/>
</g>
</svg>
