<svg width="54" height="30" viewBox="0 0 54 30" fill="none" xmlns="http://www.w3.org/2000/svg">
<path d="M44.6934 19H43V12.4727L40.9785 13.0996V11.7227L44.5117 10.457H44.6934V19ZM53.3184 19H47.4707V17.8398L50.2305 14.8984C50.6094 14.4844 50.8887 14.123 51.0684 13.8145C51.252 13.5059 51.3438 13.2129 51.3438 12.9355C51.3438 12.5566 51.248 12.2598 51.0566 12.0449C50.8652 11.8262 50.5918 11.7168 50.2363 11.7168C49.8535 11.7168 49.5508 11.8496 49.3281 12.1152C49.1094 12.377 49 12.7227 49 13.1523H47.3008C47.3008 12.6328 47.4238 12.1582 47.6699 11.7285C47.9199 11.2988 48.2715 10.9629 48.7246 10.7207C49.1777 10.4746 49.6914 10.3516 50.2656 10.3516C51.1445 10.3516 51.8262 10.5625 52.3105 10.9844C52.7988 11.4062 53.043 12.002 53.043 12.7715C53.043 13.1934 52.9336 13.623 52.7148 14.0605C52.4961 14.498 52.1211 15.0078 51.5898 15.5898L49.6504 17.6348H53.3184V19Z" fill="#1A1A1A"/>
<mask id="mask0_2_280" style="mask-type:alpha" maskUnits="userSpaceOnUse" x="5" y="5" width="20" height="20">
<path fill-rule="evenodd" clip-rule="evenodd" d="M24 9H22V18H9V20C9 20.55 9.45 21 10 21H21L25 25V10C25 9.45 24.55 9 24 9ZM20 15V6C20 5.45 19.55 5 19 5H6C5.45 5 5 5.45 5 6V20L9 16H19C19.55 16 20 15.55 20 15Z" fill="white"/>
</mask>
<g mask="url(#mask0_2_280)">
<rect x="2" y="2" width="26" height="26" fill="#191919"/>
</g>
</svg>
