<svg width="61" height="30" viewBox="0 0 61 30" fill="none" xmlns="http://www.w3.org/2000/svg">
<path d="M46.4277 19H40.5801V17.8398L43.3398 14.8984C43.7188 14.4844 43.998 14.123 44.1777 13.8145C44.3613 13.5059 44.4531 13.2129 44.4531 12.9355C44.4531 12.5566 44.3574 12.2598 44.166 12.0449C43.9746 11.8262 43.7012 11.7168 43.3457 11.7168C42.9629 11.7168 42.6602 11.8496 42.4375 12.1152C42.2188 12.377 42.1094 12.7227 42.1094 13.1523H40.4102C40.4102 12.6328 40.5332 12.1582 40.7793 11.7285C41.0293 11.2988 41.3809 10.9629 41.834 10.7207C42.2871 10.4746 42.8008 10.3516 43.375 10.3516C44.2539 10.3516 44.9355 10.5625 45.4199 10.9844C45.9082 11.4062 46.1523 12.002 46.1523 12.7715C46.1523 13.1934 46.043 13.623 45.8242 14.0605C45.6055 14.498 45.2305 15.0078 44.6992 15.5898L42.7598 17.6348H46.4277V19ZM53.2715 11.418L49.9727 19H48.1855L51.4902 11.8398H47.248V10.4688H53.2715V11.418ZM54.6133 14.8047L55.1055 10.4688H59.8867V11.8809H56.4941L56.2832 13.7148C56.6855 13.5 57.1133 13.3926 57.5664 13.3926C58.3789 13.3926 59.0156 13.6445 59.4766 14.1484C59.9375 14.6523 60.168 15.3574 60.168 16.2637C60.168 16.8145 60.0508 17.3086 59.8164 17.7461C59.5859 18.1797 59.2539 18.5176 58.8203 18.7598C58.3867 18.998 57.875 19.1172 57.2852 19.1172C56.7695 19.1172 56.291 19.0137 55.8496 18.8066C55.4082 18.5957 55.0586 18.3008 54.8008 17.9219C54.5469 17.543 54.4121 17.1113 54.3965 16.627H56.0723C56.1074 16.9824 56.2305 17.2598 56.4414 17.459C56.6562 17.6543 56.9355 17.752 57.2793 17.752C57.6621 17.752 57.957 17.6152 58.1641 17.3418C58.3711 17.0645 58.4746 16.6738 58.4746 16.1699C58.4746 15.6855 58.3555 15.3145 58.1172 15.0566C57.8789 14.7988 57.541 14.6699 57.1035 14.6699C56.7012 14.6699 56.375 14.7754 56.125 14.9863L55.9609 15.1387L54.6133 14.8047Z" fill="#1A1A1A"/>
<mask id="mask0_2_271" style="mask-type:alpha" maskUnits="userSpaceOnUse" x="4" y="7" width="22" height="16">
<path fill-rule="evenodd" clip-rule="evenodd" d="M15 7.5C10 7.5 5.73 10.61 4 15C5.73 19.39 10 22.5 15 22.5C20 22.5 24.27 19.39 26 15C24.27 10.61 20 7.5 15 7.5ZM15 20C12.24 20 10 17.76 10 15C10 12.24 12.24 10 15 10C17.76 10 20 12.24 20 15C20 17.76 17.76 20 15 20ZM15 12C13.34 12 12 13.34 12 15C12 16.66 13.34 18 15 18C16.66 18 18 16.66 18 15C18 13.34 16.66 12 15 12Z" fill="white"/>
</mask>
<g mask="url(#mask0_2_271)">
<rect x="2" y="2" width="26" height="26" fill="#191919"/>
</g>
</svg>
